<svg version="1.1" viewBox="0.0 0.0 960.0 720.0" fill="none" stroke="none" stroke-linecap="square" stroke-miterlimit="10" xmlns:xlink="http://www.w3.org/1999/xlink" xmlns="http://www.w3.org/2000/svg"><clipPath id="p.0"><path d="m0 0l960.0 0l0 720.0l-960.0 0l0 -720.0z" clip-rule="nonzero"/></clipPath><g clip-path="url(#p.0)"><path fill="#000000" fill-opacity="0.0" d="m0 0l960.0 0l0 720.0l-960.0 0z" fill-rule="evenodd"/><path fill="#cfe2f3" d="m375.3937 113.727036l0 0c0 -11.33271 9.186981 -20.519684 20.519684 -20.519684l0 0c5.4421387 0 10.661407 2.1618881 14.509613 6.010071c3.848175 3.8481903 6.010071 9.0674515 6.010071 14.509613l0 0c0 11.33271 -9.186981 20.519684 -20.519684 20.519684l0 0c-11.332703 0 -20.519684 -9.186974 -20.519684 -20.519684z" fill-rule="evenodd"/><path stroke="#000000" stroke-width="1.0" stroke-linejoin="round" stroke-linecap="butt" d="m375.3937 113.727036l0 0c0 -11.33271 9.186981 -20.519684 20.519684 -20.519684l0 0c5.4421387 0 10.661407 2.1618881 14.509613 6.010071c3.848175 3.8481903 6.010071 9.0674515 6.010071 14.509613l0 0c0 11.33271 -9.186981 20.519684 -20.519684 20.519684l0 0c-11.332703 0 -20.519684 -9.186974 -20.519684 -20.519684z" fill-rule="evenodd"/><path fill="#000000" d="m397.3569 120.64703l-1.640625 0l0 -10.453125q-0.59375 0.5625 -1.5625 1.140625q-0.953125 0.5625 -1.71875 0.84375l0 -1.59375q1.375 -0.640625 2.40625 -1.5625q1.03125 -0.921875 1.453125 -1.78125l1.0625 0l0 13.40625z" fill-rule="nonzero"/><path fill="#cfe2f3" d="m313.83203 194.46982l0 0c0 -11.332718 9.186951 -20.519684 20.519684 -20.519684l0 0c5.4421387 0 10.661407 2.1618805 14.509613 6.010071c3.848175 3.8481903 6.010071 9.067459 6.010071 14.509613l0 0c0 11.332703 -9.186981 20.519684 -20.519684 20.519684l0 0c-11.332733 0 -20.519684 -9.186981 -20.519684 -20.519684z" fill-rule="evenodd"/><path stroke="#000000" stroke-width="1.0" stroke-linejoin="round" stroke-linecap="butt" d="m313.83203 194.46982l0 0c0 -11.332718 9.186951 -20.519684 20.519684 -20.519684l0 0c5.4421387 0 10.661407 2.1618805 14.509613 6.010071c3.848175 3.8481903 6.010071 9.067459 6.010071 14.509613l0 0c0 11.332703 -9.186981 20.519684 -20.519684 20.519684l0 0c-11.332733 0 -20.519684 -9.186981 -20.519684 -20.519684z" fill-rule="evenodd"/><path fill="#000000" d="m338.23273 199.81169l0 1.578125l-8.828125 0q-0.015625 -0.59375 0.1875 -1.140625q0.34375 -0.90625 1.078125 -1.78125q0.75 -0.875 2.15625 -2.015625q2.171875 -1.78125 2.9375 -2.828125q0.765625 -1.046875 0.765625 -1.96875q0 -0.984375 -0.703125 -1.640625q-0.6875 -0.671875 -1.8125 -0.671875q-1.1875 0 -1.90625 0.71875q-0.703125 0.703125 -0.703125 1.953125l-1.6875 -0.171875q0.171875 -1.890625 1.296875 -2.875q1.140625 -0.984375 3.03125 -0.984375q1.921875 0 3.046875 1.0625q1.125 1.0625 1.125 2.640625q0 0.796875 -0.328125 1.578125q-0.328125 0.78125 -1.09375 1.640625q-0.75 0.84375 -2.53125 2.34375q-1.46875 1.234375 -1.890625 1.6875q-0.421875 0.4375 -0.6875 0.875l6.546875 0z" fill-rule="nonzero"/><path fill="#cfe2f3" d="m438.96063 194.46982l0 0c0 -11.332718 9.186981 -20.519684 20.519684 -20.519684l0 0c5.442169 0 10.661407 2.1618805 14.509613 6.010071c3.848175 3.8481903 6.010071 9.067459 6.010071 14.509613l0 0c0 11.332703 -9.186981 20.519684 -20.519684 20.519684l0 0c-11.332703 0 -20.519684 -9.186981 -20.519684 -20.519684z" fill-rule="evenodd"/><path stroke="#000000" stroke-width="1.0" stroke-linejoin="round" stroke-linecap="butt" d="m438.96063 194.46982l0 0c0 -11.332718 9.186981 -20.519684 20.519684 -20.519684l0 0c5.442169 0 10.661407 2.1618805 14.509613 6.010071c3.848175 3.8481903 6.010071 9.067459 6.010071 14.509613l0 0c0 11.332703 -9.186981 20.519684 -20.519684 20.519684l0 0c-11.332703 0 -20.519684 -9.186981 -20.519684 -20.519684z" fill-rule="evenodd"/><path fill="#000000" d="m454.75195 197.85857l1.640625 -0.21875q0.28125 1.40625 0.953125 2.015625q0.6875 0.609375 1.65625 0.609375q1.15625 0 1.953125 -0.796875q0.796875 -0.796875 0.796875 -1.984375q0 -1.125 -0.734375 -1.859375q-0.734375 -0.734375 -1.875 -0.734375q-0.46875 0 -1.15625 0.171875l0.1875 -1.4375q0.15625 0.015625 0.265625 0.015625q1.046875 0 1.875 -0.546875q0.84375 -0.546875 0.84375 -1.671875q0 -0.90625 -0.609375 -1.5q-0.609375 -0.59375 -1.578125 -0.59375q-0.953125 0 -1.59375 0.609375q-0.640625 0.59375 -0.8125 1.796875l-1.640625 -0.296875q0.296875 -1.640625 1.359375 -2.546875q1.0625 -0.90625 2.65625 -0.90625q1.09375 0 2.0 0.46875q0.921875 0.46875 1.40625 1.28125q0.5 0.8125 0.5 1.71875q0 0.859375 -0.46875 1.578125q-0.46875 0.703125 -1.375 1.125q1.1875 0.28125 1.84375 1.140625q0.65625 0.859375 0.65625 2.15625q0 1.734375 -1.28125 2.953125q-1.265625 1.21875 -3.21875 1.21875q-1.765625 0 -2.921875 -1.046875q-1.15625 -1.046875 -1.328125 -2.71875z" fill-rule="nonzero"/><path fill="#cfe2f3" d="m252.27034 283.75592l0 0c0 -11.332733 9.186966 -20.519714 20.5197 -20.519714l0 0c5.4421387 0 10.661407 2.1618958 14.5095825 6.0101013c3.8482056 3.848175 6.0101013 9.067444 6.0101013 14.509613l0 0c0 11.332703 -9.186981 20.519684 -20.519684 20.519684l0 0c-11.332733 0 -20.5197 -9.186981 -20.5197 -20.519684z" fill-rule="evenodd"/><path stroke="#000000" stroke-width="1.0" stroke-linejoin="round" stroke-linecap="butt" d="m252.27034 283.75592l0 0c0 -11.332733 9.186966 -20.519714 20.5197 -20.519714l0 0c5.4421387 0 10.661407 2.1618958 14.5095825 6.0101013c3.8482056 3.848175 6.0101013 9.067444 6.0101013 14.509613l0 0c0 11.332703 -9.186981 20.519684 -20.519684 20.519684l0 0c-11.332733 0 -20.5197 -9.186981 -20.5197 -20.519684z" fill-rule="evenodd"/><path fill="#000000" d="m273.31168 290.6759l0 -3.203125l-5.796875 0l0 -1.5l6.09375 -8.65625l1.34375 0l0 8.65625l1.796875 0l0 1.5l-1.796875 0l0 3.203125l-1.640625 0zm0 -4.703125l0 -6.015625l-4.1875 6.015625l4.1875 0z" fill-rule="nonzero"/><path fill="#cfe2f3" d="m502.6929 277.22833l0 0c0 -11.332703 9.186981 -20.519684 20.519684 -20.519684l0 0c5.4421997 0 10.661438 2.1618958 14.509644 6.0101013c3.8481445 3.848175 6.010071 9.067444 6.010071 14.5095825l0 0c0 11.332733 -9.187012 20.519684 -20.519714 20.519684l0 0c-11.332703 0 -20.519684 -9.186951 -20.519684 -20.519684z" fill-rule="evenodd"/><path stroke="#000000" stroke-width="1.0" stroke-linejoin="round" stroke-linecap="butt" d="m502.6929 277.22833l0 0c0 -11.332703 9.186981 -20.519684 20.519684 -20.519684l0 0c5.4421997 0 10.661438 2.1618958 14.509644 6.0101013c3.8481445 3.848175 6.010071 9.067444 6.010071 14.5095825l0 0c0 11.332733 -9.187012 20.519684 -20.519714 20.519684l0 0c-11.332703 0 -20.519684 -9.186951 -20.519684 -20.519684z" fill-rule="evenodd"/><path fill="#000000" d="m526.98425 274.07022l-1.625 0.125q-0.21875 -0.96875 -0.625 -1.40625q-0.65625 -0.703125 -1.640625 -0.703125q-0.78125 0 -1.375 0.4375q-0.765625 0.5625 -1.21875 1.65625q-0.453125 1.078125 -0.46875 3.078125q0.59375 -0.890625 1.453125 -1.328125q0.859375 -0.4375 1.796875 -0.4375q1.640625 0 2.78125 1.203125q1.15625 1.203125 1.15625 3.109375q0 1.265625 -0.546875 2.34375q-0.53125 1.078125 -1.484375 1.65625q-0.9375 0.578125 -2.140625 0.578125q-2.0625 0 -3.359375 -1.5q-1.28125 -1.515625 -1.28125 -4.984375q0 -3.875 1.421875 -5.625q1.25 -1.53125 3.375 -1.53125q1.5625 0 2.5625 0.890625q1.015625 0.875 1.21875 2.4375zm-6.6875 5.75q0 0.84375 0.359375 1.625q0.359375 0.765625 1.0 1.171875q0.640625 0.40625 1.359375 0.40625q1.03125 0 1.78125 -0.828125q0.75 -0.84375 0.75 -2.28125q0 -1.390625 -0.734375 -2.1875q-0.734375 -0.796875 -1.859375 -0.796875q-1.109375 0 -1.890625 0.796875q-0.765625 0.796875 -0.765625 2.09375z" fill-rule="nonzero"/><path fill="#cfe2f3" d="m354.8714 283.75592l0 0c0 -11.332733 9.186981 -20.519714 20.519684 -20.519714l0 0c5.4421387 0 10.661407 2.1618958 14.509613 6.0101013c3.848175 3.848175 6.010071 9.067444 6.010071 14.509613l0 0c0 11.332703 -9.186981 20.519684 -20.519684 20.519684l0 0c-11.332703 0 -20.519684 -9.186981 -20.519684 -20.519684z" fill-rule="evenodd"/><path stroke="#000000" stroke-width="1.0" stroke-linejoin="round" stroke-linecap="butt" d="m354.8714 283.75592l0 0c0 -11.332733 9.186981 -20.519714 20.519684 -20.519714l0 0c5.4421387 0 10.661407 2.1618958 14.509613 6.0101013c3.848175 3.848175 6.010071 9.067444 6.010071 14.509613l0 0c0 11.332703 -9.186981 20.519684 -20.519684 20.519684l0 0c-11.332703 0 -20.519684 -9.186981 -20.519684 -20.519684z" fill-rule="evenodd"/><path fill="#000000" d="m370.66272 287.1759l1.71875 -0.140625q0.1875 1.25 0.875 1.890625q0.703125 0.625 1.6875 0.625q1.1875 0 2.0 -0.890625q0.828125 -0.890625 0.828125 -2.359375q0 -1.40625 -0.796875 -2.21875q-0.78125 -0.8125 -2.0625 -0.8125q-0.78125 0 -1.421875 0.359375q-0.640625 0.359375 -1.0 0.9375l-1.546875 -0.203125l1.296875 -6.859375l6.640625 0l0 1.5625l-5.328125 0l-0.71875 3.59375q1.203125 -0.84375 2.515625 -0.84375q1.75 0 2.953125 1.21875q1.203125 1.203125 1.203125 3.109375q0 1.8125 -1.046875 3.140625q-1.296875 1.625 -3.515625 1.625q-1.8125 0 -2.96875 -1.015625q-1.15625 -1.03125 -1.3125 -2.71875z" fill-rule="nonzero"/><path fill="#cfe2f3" d="m299.33072 360.0l0 0c0 -11.332703 9.186951 -20.519684 20.519684 -20.519684l0 0c5.4421387 0 10.661407 2.1618958 14.509613 6.010071c3.848175 3.8482056 6.010071 9.067444 6.010071 14.509613l0 0c0 11.332703 -9.186981 20.519684 -20.519684 20.519684l0 0c-11.332733 0 -20.519684 -9.186981 -20.519684 -20.519684z" fill-rule="evenodd"/><path stroke="#000000" stroke-width="1.0" stroke-linejoin="round" stroke-linecap="butt" d="m299.33072 360.0l0 0c0 -11.332703 9.186951 -20.519684 20.519684 -20.519684l0 0c5.4421387 0 10.661407 2.1618958 14.509613 6.010071c3.848175 3.8482056 6.010071 9.067444 6.010071 14.509613l0 0c0 11.332703 -9.186981 20.519684 -20.519684 20.519684l0 0c-11.332733 0 -20.519684 -9.186981 -20.519684 -20.519684z" fill-rule="evenodd"/><path fill="#000000" d="m315.2314 355.31064l0 -1.578125l8.640625 0l0 1.28125q-1.28125 1.359375 -2.53125 3.609375q-1.25 2.25 -1.9375 4.625q-0.484375 1.671875 -0.625 3.671875l-1.6875 0q0.03125 -1.578125 0.625 -3.8125q0.59375 -2.234375 1.6875 -4.296875q1.109375 -2.078125 2.359375 -3.5l-6.53125 0z" fill-rule="nonzero"/><path fill="#000000" fill-opacity="0.0" d="m348.86133 179.9602l32.53543 -51.716537" fill-rule="evenodd"/><path stroke="#000000" stroke-width="1.0" stroke-linejoin="round" stroke-linecap="butt" d="m348.86133 179.9602l32.53543 -51.716537" fill-rule="evenodd"/><path fill="#000000" fill-opacity="0.0" d="m410.423 128.23665l34.551178 51.716522" fill-rule="evenodd"/><path stroke="#000000" stroke-width="1.0" stroke-linejoin="round" stroke-linecap="butt" d="m410.423 128.23665l34.551178 51.716522" fill-rule="evenodd"/><path fill="#000000" fill-opacity="0.0" d="m319.8421 208.97943l-32.53543 60.251953" fill-rule="evenodd"/><path stroke="#000000" stroke-width="1.0" stroke-linejoin="round" stroke-linecap="butt" d="m319.8421 208.97943l-32.53543 60.251953" fill-rule="evenodd"/><path fill="#000000" fill-opacity="0.0" d="m348.86133 208.97943l26.519684 54.2677" fill-rule="evenodd"/><path stroke="#000000" stroke-width="1.0" stroke-linejoin="round" stroke-linecap="butt" d="m348.86133 208.97943l26.519684 54.2677" fill-rule="evenodd"/><path fill="#000000" fill-opacity="0.0" d="m473.98993 208.97943l34.70865 53.73227" fill-rule="evenodd"/><path stroke="#000000" stroke-width="1.0" stroke-linejoin="round" stroke-linecap="butt" d="m473.98993 208.97943l34.70865 53.73227" fill-rule="evenodd"/><path fill="#000000" fill-opacity="0.0" d="m287.29962 298.2655l18.047272 47.212616" fill-rule="evenodd"/><path stroke="#000000" stroke-width="1.0" stroke-linejoin="round" stroke-linecap="butt" d="m287.29962 298.2655l18.047272 47.212616" fill-rule="evenodd"/><path fill="#000000" fill-opacity="0.0" d="m389.9007 269.2463l6.015747 -134.99214" fill-rule="evenodd"/><path stroke="#ff9900" stroke-width="2.0" stroke-linejoin="round" stroke-linecap="butt" d="m389.90067 269.24628l5.4815063 -123.00401" fill-rule="evenodd"/><path fill="#ff9900" stroke="#ff9900" stroke-width="2.0" stroke-linecap="butt" d="m398.68237 146.38934l-2.8961182 -9.214264l-3.7042542 8.92012z" fill-rule="evenodd"/><path fill="#000000" fill-opacity="0.0" d="m319.8504 339.48032l14.48819 -124.50394" fill-rule="evenodd"/><path stroke="#ff9900" stroke-width="2.0" stroke-linejoin="round" stroke-linecap="butt" d="m319.8504 339.48032l13.101135 -112.58438" fill-rule="evenodd"/><path fill="#ff9900" stroke="#ff9900" stroke-width="2.0" stroke-linecap="butt" d="m336.23285 227.27779l-2.2322083 -9.397202l-4.330414 8.633514z" fill-rule="evenodd"/></g></svg>